<?xml version="1.0" encoding="UTF-8"?>
<svg id="Calque_1" data-name="Calque 1" xmlns="http://www.w3.org/2000/svg" viewBox="0 0 48 48">
  <defs>
    <style>
      .cls-1 {
        fill: #868788;
      }
    </style>
  </defs>
  <path class="cls-1" d="M28.24,24L47.07,5.18c1.17-1.17,1.17-3.07,0-4.24-1.17-1.17-3.07-1.17-4.24,0l-18.82,18.82L5.18.93C4-.24,2.1-.24.93.93-.24,2.1-.24,4,.93,5.18l18.82,18.82L.93,42.82c-1.17,1.17-1.17,3.07,0,4.24.59.59,1.35.88,2.12.88s1.54-.29,2.12-.88l18.82-18.82,18.82,18.82c.59.59,1.35.88,2.12.88s1.54-.29,2.12-.88c1.17-1.17,1.17-3.07,0-4.24l-18.82-18.82Z"/>
</svg>