<?xml version="1.0" encoding="UTF-8"?>
<svg id="Calque_1" data-name="Calque 1" xmlns="http://www.w3.org/2000/svg" viewBox="0 0 150 150">
  <defs>
    <style>
      .cls-1 {
        fill: #0a0832;
      }

      .cls-2 {
        fill: #fff;
      }
    </style>
  </defs>
  <rect class="cls-1" width="150" height="150"/>
  <path class="cls-2" d="M54.42,25.63c-15.88,0-28.79,12.93-28.79,28.81v41.14c0,15.88,12.93,28.79,28.81,28.79h41.14c15.88,0,28.79-12.93,28.79-28.81v-41.14c0-15.88-12.93-28.79-28.81-28.79h-41.14ZM103.8,42.09c2.27,0,4.11,1.84,4.11,4.11s-1.84,4.11-4.11,4.11-4.11-1.84-4.11-4.11,1.84-4.11,4.11-4.11ZM75,50.32c13.61,0,24.68,11.07,24.68,24.68s-11.07,24.68-24.68,24.68-24.68-11.07-24.68-24.68,11.07-24.68,24.68-24.68ZM75,58.54c-9.09,0-16.46,7.37-16.46,16.46s7.37,16.46,16.46,16.46,16.46-7.37,16.46-16.46-7.37-16.46-16.46-16.46Z"/>
</svg>