<?xml version="1.0" encoding="UTF-8"?>
<svg id="Calque_1" data-name="Calque 1" xmlns="http://www.w3.org/2000/svg" viewBox="0 0 150 150">
  <defs>
    <style>
      .cls-1 {
        fill: #0a0832;
      }

      .cls-2 {
        fill: #fff;
      }
    </style>
  </defs>
  <rect class="cls-1" width="150" height="150"/>
  <path class="cls-2" d="M115.39,25.63H34.61c-4.96,0-8.98,4.02-8.98,8.98v80.78c0,4.96,4.02,8.98,8.98,8.98h80.78c4.96,0,8.98-4.02,8.98-8.98V34.61c0-4.96-4.02-8.98-8.98-8.98ZM56.84,106.42h-13.24v-42.6h13.24v42.6ZM50.09,57.73c-4.27,0-7.72-3.46-7.72-7.72s3.46-7.71,7.72-7.71,7.71,3.46,7.71,7.71-3.46,7.72-7.71,7.72ZM106.43,106.42h-13.23v-20.72c0-4.94-.09-11.3-6.88-11.3s-7.95,5.38-7.95,10.94v21.08h-13.23v-42.6h12.7v5.82h.18c1.77-3.35,6.09-6.88,12.53-6.88,13.41,0,15.88,8.82,15.88,20.29,0,0,0,23.36,0,23.36Z"/>
</svg>