<?xml version="1.0" encoding="UTF-8"?>
<svg id="Calque_1" data-name="Calque 1" xmlns="http://www.w3.org/2000/svg" viewBox="0 0 1500 1273.07">
  <path d="M675.26,841.81c-12.52-.13-12.68,8.57-20.13,13.92-11.53,8.28-24.08,16.16-36.01,23.93-3.43,2.23-10.44,14.62-15.53,4.61-.77-1.51-2.73-29.65-2.61-33.74.9-30.35,7.34-74.8,12.33-105.37,5.94-36.45,28.09-96.72,28.26-129.27.15-28.72-30.27-67.59-61.76-60.03,0,0-26.53,8.08-33.24,38.05-9.05,40.45-13.39,77.97-28.6,118.07-21.73,57.29-47.88,125.24-82.74,176.5-5.91,8.69-16.21,13.87-19.91,24.73-.68,2.01-3.17,2.69-4.72,1.23-.71-.68-1.03-1.67-.84-2.64,6.58-33.14,8.29-67.72,14.5-100.78,11.79-62.69,37.14-128.24,46.73-191.32,3.68-24.23-5.67-48.89-25.01-63.94-11.88-9.25-23.68-12.98-39.38-7.02-14.43,5.48-28.17,38.31-36.38,51.46-11.42,18.31-4.83,9.8-10,26.41-10.07,32.31-50.55,74.9-68.9,103.52-54.47,84.93-103.78,175.19-162.25,257.23-3.92,5.5-6.35,12.11-9.87,17.88-2.16,3.54.71,7.35-6.63,5.04,9.79-37.21,18.84-75,29.89-111.86,14.03-46.78,28.84-94.83,43.49-141.58,17.83-56.9,38.19-112.69,57.84-168.73,6.55-19.31,18.58-47.96,24.53-65.73,42.74-127.55,87.76-259.23,149.48-379.37,16.32-31.77,47.01-63.72,42.04-99.9-2.38-17.34-25.95-39.46-42.87-42.84-9.35-1.87-7.12,6.34-15.62,9.9-19.54,8.19-30.88-3.96-37.42,25.15-7.51,33.4-14.12,59.06-25.96,91.16-11.38,30.85-23.08,61.68-35.39,92.2-19.56,48.52-37.99,97.48-54.75,147.04l-53.91,159.43c-9.94,33.47-25.27,74.79-36.38,110.92-7.7,25.03-13.66,50.96-21.13,76.1-36.36,122.46-76.43,247.33-104.66,372.67-4.75,21.08-4.68,42.72-10.78,65.02-7.03,25.72-22.68,44.14-20.84,72,2.04,30.8,37.14,33.02,56.68,51,6.41,1.69,16.48-7.26,20.22-12.53,43.59-61.27,71.12-134.85,111.44-197.6l24.23-35.85c14.6-30.07,41.6-64.77,59.43-94.09,23.78-39.09,44.85-80.15,72.78-116.51-.85,38.14-9.81,74.28-14.67,111.78-2.31,17.78-.98,38.54-4,58.23-3.9,25.41-18.12,54.36-6.33,78.77,3.32,6.87,9.56,12.73,13.82,19.72,4.22,6.92,11.27,11.65,19.23,13.16l26.95,5.13c2,.38,4.07.2,5.97-.52,1.71-.65,3.23-1.7,4.43-3.08l68.01-78.1c8.1-9.3,15.29-19.39,21.02-30.31,7.72-14.73,18.29-27.87,27.89-41.63,3.12,18,29.24,56.99,39.42,65.63,8.48,7.2,29.25,7.05,39.74,4.66,17.23-3.92,56.58-46.84,71.18-61.03,20.09-19.53,45.4-39.18,53.26-68.67,6.21-23.29-11.5-47.98-35.58-48.24Z"/>
  <path d="M1499.57,822.01c-.66-8.62-6.47-18.16-7.86-27.42-9.52-63.28-25.72-127.84-28.91-191.97-.71-14.33,3.03-33.26,1.31-46.38-.93-7.12-15.37-40.85-20.15-46.15-20.28-22.49-61.14-27.93-74.79,4.57-4.24,10.09-10.96,38.23-11.52,49.2-.56,10.84,4.43,21.29,3.89,30.36-1.21,20.25-8.01,48.27-10.46,70.26,0,0-11.13,62.48-25.66,94.31-5.68,12.45-24.43,53.61-32.43,63.61l-30.09,41.7c-9.16,12.34-26.55,25.47-42.46,26.31-.52-14.35,1.49-27.52,2.24-41.12,3.41-62.54,35.19-122.87,39.02-184.84.46-7.42-2.78-41.13-5.01-47.21-3.69-10.05-38.42-22.25-48.95-25.81-4.97-21.34-4.08-38.49-21.99-54.24-17.41-15.31-52.24-21.93-70.97-6.29-4.72,3.94-21.02,24.71-25.68,30.98-50.16,67.41-88.76,146.51-112.38,226.68-5.66,19.19-8.22,42.55-15.93,61.51-49.89,38.75-96.07,89.47-162.72,94.36-4.07-4.41,7.07-44.75,9.49-52.69,19.72-64.59,51.5-140.09,79.85-201.36,15.15-32.74,44.94-100.87,63.67-128.06,5.79-8.4,25.61-19.62,28.52-30.46,1.58-5.88-.61-33.16-3.2-39.51-14.7-35.95-56.36-28.57-80.12-5.6-31.14,30.1-54.23,99.15-71.92,138.78-42.61,95.44-127.72,271.75-109.76,374.02l32.46,41.23c47,20.54,129.58-21.32,167.3-51.36,8.3-6.61,42.4-51.93,45.85-52.34,10.63,4.84,11.44,24.31,21.74,30.55,0,0,10.99,8.29,37.52,8.39,15.66.06,76.09-19.31,90.04-28.05,8.09-5.07,13.08-18.53,24.73-17.19,7.12,1.51,17.16,38.02,22.55,46.89,4.1,6.75,22.27,22.55,29.04,22.96,3.8.23,12.4,2.9,17.47,2.76,27.55-.73,51.21-10.84,75.89-24.77,37.62-21.23,74.18-67.91,95.83-105.42,4.95-8.57,15.34-39.67,21.85-41.91,5.16-1.78,5.93,3.4,6.48,5.79,1.99,8.54,6.65,27.08,5.59,34.7-.37,2.65-10.61,27.1-11.54,28.32-1.95,2.56-13.77,3.54-17.45,6.61-1.23,1.03-16.1,25.56-16.64,27.06-.55,1.53.98,29.13,1.46,32.56.74,5.37,9.09,23.97,12.72,28.14,2,2.29,28.9,27.25,30.73,28.26,7.67,4.22,36.23,7.82,43.44,3.69,1.27-.73,19.23-20.29,19.98-21.56,18.61-31.56,30.85-144.73,27.92-182.84ZM1149.59,699.16c-5.78,36.35-5.19,57.61-26.95,89.91l-31.88,44.3c-9.01,13.72-24.31,15.25-38.49,22.88l1.68-9.4c2.71-15.13,6.32-30.11,11.15-44.7,19.51-58.96,48.79-112.01,89.94-159.56,9.05.82-4.44,50.1-5.46,56.57Z"/>
  <g>
    <path d="M513.36,1143.36h47.05c21.91,0,36.56,13.11,36.56,32.71s-14.66,33.17-36.56,33.17h-26.38v39.96h-20.67v-105.83ZM560.42,1190.72c9.56,0,15.89-5.86,15.89-14.66s-6.33-14.19-15.89-14.19h-26.38v28.85h26.38Z"/>
    <path d="M654.27,1143.36h49.21c20.67,0,34.4,12.19,34.4,30.39,0,14.04-8.64,25.61-21.44,28.85l28.85,46.59h-22.83l-27.92-45.05h-19.59v45.05h-20.67v-105.83ZM703.48,1185.63c9.41,0,14.19-6.02,14.19-11.88s-4.78-11.88-14.19-11.88h-28.54v23.76h28.54Z"/>
    <path d="M795.55,1196.27c0-33.01,22.06-55.07,55.07-55.07s55.07,22.06,55.07,55.07-22.06,55.07-55.07,55.07-55.07-22.06-55.07-55.07ZM885.03,1196.27c0-21.91-13.73-36.56-34.4-36.56s-34.4,14.66-34.4,36.56,13.73,36.56,34.4,36.56,34.4-14.66,34.4-36.56Z"/>
    <path d="M952.18,1143.36h22.21l31.93,82.07,32.09-82.07h22.06l-43.35,105.83h-21.29l-43.66-105.83Z"/>
    <path d="M1106.96,1196.27c0-33.01,22.06-55.07,55.07-55.07s55.07,22.06,55.07,55.07-22.06,55.07-55.07,55.07-55.07-22.06-55.07-55.07ZM1196.43,1196.27c0-21.91-13.73-36.56-34.4-36.56s-34.4,14.66-34.4,36.56,13.73,36.56,34.4,36.56,34.4-14.66,34.4-36.56Z"/>
    <path d="M1271.33,1212.78h19.59c.46,12.03,11.88,20.05,28.69,20.05,15.89,0,26.53-5.86,26.53-14.5,0-21.6-68.96-8.48-68.96-45.97,0-18.67,16.97-31.16,42.42-31.16,21.29,0,38.72,12.19,43.66,30.39l-18.98,4.78c-2.47-10.03-12.34-16.66-24.68-16.66-13.11,0-21.91,5.09-21.91,12.65,0,16.35,68.96,7.25,68.96,45.97,0,19.75-18.82,33.01-47.05,33.01s-47.82-15.43-48.29-38.57Z"/>
    <path d="M1448.78,1161.87h-30.54v-18.51h81.76v18.51h-30.54v87.31h-20.67v-87.31Z"/>
  </g>
</svg>