<svg width="24" height="24" viewBox="0 0 24 24" fill="none" xmlns="http://www.w3.org/2000/svg">
<g clip-path="url(#clip0_406_26)">
<rect width="24" height="24" fill="white"/>
<circle cx="12" cy="12" r="12" fill="#5C53FF"/>
<path d="M11.902 16.9001C9.69 16.9001 8.22 15.6821 8.22 13.8621H9.83C9.83 14.8001 10.656 15.4161 11.902 15.4161C13.246 15.4161 14.142 14.8141 14.142 13.9181C14.142 13.0221 13.246 12.4201 11.902 12.4201H11.006V10.9361H11.902C13.064 10.9361 13.848 10.4321 13.848 9.67605C13.848 8.90605 13.064 8.38805 11.902 8.38805C10.782 8.38805 10.04 9.10205 10.04 10.1801H8.458C8.458 8.22005 9.83 6.90405 11.902 6.90405C14.072 6.90405 15.514 7.92605 15.514 9.46605C15.514 10.2641 14.94 11.1321 14.086 11.6221C15.108 12.0561 15.78 13.0501 15.78 14.1001C15.78 15.7801 14.226 16.9001 11.902 16.9001Z" fill="#F1F3FF"/>
</g>
<defs>
<clipPath id="clip0_406_26">
<rect width="24" height="24" fill="white"/>
</clipPath>
</defs>
</svg>
