<?xml version="1.0" encoding="UTF-8"?>
<svg id="Calque_1" data-name="Calque 1" xmlns="http://www.w3.org/2000/svg" viewBox="0 0 150 150">
  <defs>
    <style>
      .cls-1 {
        fill: #0a0832;
      }

      .cls-2 {
        fill: #fff;
      }
    </style>
  </defs>
  <rect class="cls-1" width="150" height="150"/>
  <path class="cls-2" d="M109.99,39.8c-8.9-8.9-21.19-14.4-34.77-14.4-27.15,0-49.17,22.01-49.17,49.17,0,9.04,2.44,17.5,6.69,24.78l-.13-.23-6.98,25.48,26.06-6.84c6.78,3.77,14.88,5.98,23.49,5.98h.02c27.15,0,49.16-22.03,49.16-49.18,0-13.57-5.5-25.86-14.39-34.76h0ZM75.21,115.44h-.02c-7.67,0-14.85-2.12-20.98-5.8l.19.1-1.49-.88-15.46,4.06,4.12-15.08-.97-1.54c-3.92-6.16-6.25-13.66-6.25-21.72,0-22.57,18.3-40.86,40.86-40.86s40.86,18.3,40.86,40.86-18.29,40.86-40.86,40.86h0ZM97.62,84.84c-1.23-.62-7.27-3.58-8.39-4-1.13-.41-1.95-.61-2.77.62-.81,1.23-3.17,3.99-3.89,4.81-.71.82-1.44.92-2.66.31-3.8-1.54-7.07-3.6-9.91-6.13l.03.03c-2.64-2.45-4.91-5.25-6.74-8.34l-.09-.17c-.71-1.23-.08-1.89.54-2.5.55-.55,1.23-1.44,1.84-2.15.48-.59.9-1.27,1.21-2l.02-.06c.14-.29.22-.62.22-.98,0-.43-.12-.84-.33-1.18h0c-.31-.61-2.77-6.65-3.79-9.11-1-2.39-2.01-2.07-2.77-2.11-.71-.03-1.53-.04-2.36-.04-1.31.03-2.47.62-3.27,1.53h0c-2.65,2.52-4.3,6.07-4.3,10.01,0,.09,0,.18,0,.26h0c.43,4.84,2.25,9.2,5.05,12.75l-.04-.05c5.31,7.87,12.38,14.16,20.68,18.41l.31.14c1.81.82,4.13,1.7,6.51,2.45l.49.14c1.46.46,3.15.73,4.89.73,1,0,1.99-.09,2.94-.26h-.1c3.54-.72,6.47-2.86,8.26-5.77l.03-.06c.55-1.21.86-2.62.86-4.11,0-.61-.05-1.21-.16-1.79v.06c-.29-.51-1.11-.82-2.35-1.44h0Z"/>
</svg>